# xmcd
#
# Track frame offsets: 
#        150
#        20137
#        42900
#        68547
#        95500
#        111122
#        136342
#        149745
#
# Disc length: 2556 seconds
#
# Revision: 7
# Processed by: cddbd v1.5.1PL2 Copyright (c) Steve Scherf et al.
# Submitted via: ExactAudioCopy v0.95b4
#
DISCID=7209fa08
DTITLE=Leonard Cohen - Death of a Ladies' Man
DYEAR=1977
DGENRE=Folk
TTITLE0=True Love Leaves No Traces
TTITLE1=Iodine
TTITLE2=Paper Thin Hotel
TTITLE3=Memories
TTITLE4=I Left a Woman Waiting
TTITLE5=Don't Go Home With Your Hard-on
TTITLE6=Fingerprints
TTITLE7=Death of a Ladies' Man
EXTD=Produced by Phil Spector.\n\nLeonard Cohen, describing the proces
EXTD=s of making\nthis recording:  "It was a disaster".\n\nSpector loc
EXTD=ked him out of the final process, worked very\nhard at drowning o
EXTD=ut Leonard's vocals, added his own\nwriting credit.\n\n ID3G: 0
EXTT0=
EXTT1=
EXTT2=
EXTT3=
EXTT4=
EXTT5=
EXTT6=
EXTT7=
PLAYORDER=
